<svg xmlns="http://www.w3.org/2000/svg" width="56" height="56"><g data-name="Group 5973" fill="none" stroke="#fff" stroke-linecap="round" stroke-linejoin="round" stroke-width="3"><path data-name="Path 3538" d="M12.497 22.258c-.068-.179-.092-5.508-.3-6.067a3.614 3.614 0 0 0-1.506-1.839 3.434 3.434 0 0 0-1.779-.529 3.851 3.851 0 0 0-1.719.324 3.534 3.534 0 0 0-1.544 1.366 3.974 3.974 0 0 0-.512 1.33 5.436 5.436 0 0 0-.09 1.037c-.008.562-.023 8.659 0 9.251a7.323 7.323 0 0 1-.024 1.1 5.921 5.921 0 0 1-.443 1.718 6.4 6.4 0 0 1-1.24 1.839 4.978 4.978 0 0 0-1.248 2.415 4.381 4.381 0 0 0-.062 1.376 4.838 4.838 0 0 0 1.2 2.724c.2.231 10.46 10.546 11.171 11.153a4.723 4.723 0 0 0 2.32 1.1 4.966 4.966 0 0 0 3.792-.928 9.379 9.379 0 0 0 1-.961 4.428 4.428 0 0 1 1.517-1.035 3.847 3.847 0 0 1 1.33-.279c.465-.012.928.043 1.393.057.345.01.692-.036 1.036-.022a10.71 10.71 0 0 0 1.532-.039 4.985 4.985 0 0 0 1.595-.443 5.688 5.688 0 0 0 1.529-1.1c.637-.611 7.66-7.637 8.242-8.28a3.467 3.467 0 0 0 .9-1.944 3.641 3.641 0 0 0-1.022-3.049 4.074 4.074 0 0 0-2.1-1.131c-.389-.095-.786-.139-1.174-.223a.637.637 0 0 0-.5.1 9.356 9.356 0 0 0-2.053 1.722c-.108.114-.23.214-.331.335a.127.127 0 0 0-.028.08"/><path data-name="Path 3539" d="M25.602 20.032c2.032-2.109 8.814-8.832 9.1-9.266a3.7 3.7 0 0 0-2.618-5.739 3.645 3.645 0 0 0-2.584.661c-.273.189-1.789 1.7-2.305 2.228"/><path data-name="Path 3540" d="M23.142 11.967c-.267.275-11.724 11.756-12.326 12.289a.862.862 0 0 0-.218.215.165.165 0 0 1-.186.077"/><path data-name="Path 3541" d="M36.059 31.108a.777.777 0 0 1 .154-.527 5.04 5.04 0 0 0 .758-1.624 3.717 3.717 0 0 0-1.764-4.143 3.684 3.684 0 0 0-1.221-.418 4.959 4.959 0 0 0-1.593.015 2.027 2.027 0 0 1-.634.06"/><path data-name="Path 3542" d="M22.801 22.831c.925-.942 1.851-1.882 2.8-2.8a7.258 7.258 0 0 1 1.514-1.116.321.321 0 0 1 .218-.049 10.714 10.714 0 0 1 1.624.284 3.813 3.813 0 0 1 2.492 1.994 4 4 0 0 1 .388 1.656 6.236 6.236 0 0 1-.108 1.331.432.432 0 0 0 .016.2.216.216 0 0 1-.079.234c-.474.5-1.014.924-1.486 1.423-.1.106-.2.216-.295.325"/><path data-name="Path 3543" d="M53.732 27.406c-.093 0-.186.007-.279.007h-4.486c-.088 0-.175-.048-.263 0"/><path data-name="Path 3545" d="M49.086 9.974c-.3.137-.578.33-.866.5l-3.017 1.733c-.121.069-.238.143-.356.216a.361.361 0 0 1-.248.062"/><path data-name="Path 3548" d="M44.599 42.417c.2-.09.346.06.493.143.691.393 1.372.8 2.061 1.2.605.35 1.217.692 1.824 1.039a.211.211 0 0 0 .14.045"/></g></svg>