<svg xmlns="http://www.w3.org/2000/svg" width="56" height="56"><g data-name="Group 5970" fill="none" stroke="#fff" stroke-linecap="round" stroke-linejoin="round" stroke-width="3"><path data-name="Path 3551" d="M26.584 28.736a18.875 18.875 0 0 0 .325 3.488 18.791 18.791 0 0 0 21.945-21.945 18.792 18.792 0 0 0-22.269 18.457z"/><path data-name="Path 3552" d="M26.573 20.167a15.241 15.241 0 0 1-.262 2.817A15.174 15.174 0 0 1 8.59 5.263a15.175 15.175 0 0 1 17.983 14.904z"/><path data-name="Line 253" d="M26.573 20.167V39.73"/><path data-name="Rectangle 5598" d="M6 39.73h41.146v11.194H6z"/><path data-name="Line 255" d="m26.585 32.549 9.552-9.552"/></g></svg>