<svg xmlns="http://www.w3.org/2000/svg" width="52" height="51"><g data-name="Group 6264" transform="translate(3 3)" fill="none" stroke="#fff" stroke-linecap="round" stroke-linejoin="round" stroke-width="2"><rect data-name="Rectangle 4743" width="30.005" height="26.254" rx="3" transform="translate(14.261)"/><path data-name="Path 3634" d="M14.263 7.501h11.25a3.751 3.751 0 0 0 3.75-3.751V0"/><path data-name="Path 3635" d="M14.156 18.003h-10.4a3.751 3.751 0 0 0-3.751 3.75v18.754a3.751 3.751 0 0 0 3.751 3.75h22.5a3.751 3.751 0 0 0 3.751-3.75v-14.03"/><path data-name="Line 251" d="M.009 25.504h14.996"/><path data-name="Path 3636" d="M7.509 0a3.751 3.751 0 0 0-3.75 3.75v7.5"/><path data-name="Path 3637" d="M36.764 44.258a3.751 3.751 0 0 0 3.75-3.75v-7.5"/><path data-name="Path 3638" d="m0 7.506 2.249 3a1.876 1.876 0 0 0 3 0l2.25-3"/><path data-name="Path 3639" d="m36.756 36.757 2.249-3a1.876 1.876 0 0 1 3 0l2.249 3"/></g></svg>