<svg xmlns="http://www.w3.org/2000/svg" width="112" height="109"><g transform="translate(-340 -1026)" fill="none" stroke="#16b2cf" stroke-linecap="round" stroke-linejoin="round" stroke-width="4"><circle data-name="Ellipse 366" cx="50.815" cy="50.815" transform="translate(344.854 1029.686)" r="50.815"/><path data-name="Line 242" d="m360.034 1044.867 71.794 71.794"/><circle data-name="Ellipse 367" cx="20.663" cy="20.663" transform="rotate(-1.408 43664.3 -14704.7)" r="20.663"/><path data-name="Path 3625" d="M384.071 1071.961v-7.373c0-5.361 3.863-9.706 8.628-9.706h5.938c4.765 0 8.628 4.345 8.628 9.706v7.373"/><path data-name="Line 243" d="m401.729 1054.249 6.22-6.22"/><path data-name="Line 244" d="m389.605 1054.249-6.22-6.22"/><path data-name="Line 245" d="M361.119 1087.986h12.256"/><path data-name="Path 3626" d="M366.118 1069.642h0a14.338 14.338 0 0 0 9.807 8.514l1.369.342"/><path data-name="Path 3627" d="M366.118 1106.33h0a14.338 14.338 0 0 1 9.807-8.514l1.369-.342"/><path data-name="Line 246" d="M430.217 1087.986H417.96"/><path data-name="Path 3628" d="M425.217 1069.642h0a14.339 14.339 0 0 1-9.807 8.514l-1.369.342"/></g></svg>