<svg xmlns="http://www.w3.org/2000/svg" width="112" height="109.923"><g fill="none" stroke="#16b2cf" stroke-linecap="round" stroke-linejoin="round" stroke-width="4"><path data-name="Path 3629" d="M50.539 68.066a20.509 20.509 0 1 0 20.509-20.509 20.509 20.509 0 0 0-20.509 20.509z"/><path data-name="Path 3630" d="m79.891 86.575 13.669 13.669a6.836 6.836 0 0 0 9.667-9.667L89.558 76.906"/><path data-name="Path 3631" d="M59.39 84.935H14.962a8.046 8.046 0 0 1-8.046-8.047V17.326a8.046 8.046 0 0 1 8.046-8.047h66.4a8.047 8.047 0 0 1 8.047 8.047v41.6"/><path data-name="Line 247" d="M6.916 22.952h82.492"/><path data-name="Line 248" d="M75.735 22.952V9.279"/><path data-name="Line 249" d="m44.743 64.427 6.837-20.509"/><path data-name="Path 3632" d="m34.489 64.427-13.9-10.255 13.9-10.258"/><path data-name="Line 250" d="m67.15 47.732-5.087-3.815"/><path data-name="Path 3633" d="m60.072 74.596 17.3-12.975-15.48-11.611"/></g></svg>