<svg xmlns="http://www.w3.org/2000/svg" width="245" height="238"><g transform="translate(30 6)" opacity=".61" fill="none" stroke="#6a83bb" stroke-linecap="round" stroke-linejoin="round" stroke-width="12"><circle data-name="Ellipse 368" cx="92.097" cy="92.097" transform="translate(0 41.436)" r="92.097"/><path data-name="Line 269" d="M34.934 133.533H21.777"/><path data-name="Line 270" d="M149.261 133.533h13.157"/><path data-name="Line 271" d="M92.097 76.369V63.212"/><path data-name="Line 272" d="M92.097 190.697v13.157"/><path data-name="Line 273" d="m51.676 93.113-9.303-9.304"/><path data-name="Line 274" d="m132.516 173.963 9.303 9.304"/><path data-name="Line 275" d="m51.676 173.955-9.303 9.303"/><path data-name="Line 276" d="m132.517 93.116 9.303-9.303"/><path data-name="Line 277" d="M92.097 41.435V22.457"/><path data-name="Rectangle 5670" d="M72.362 0h39.47v22.457h-39.47z"/><path data-name="Line 278" d="m157.217 68.411 14.841-14.841"/><path data-name="Line 279" d="m161.596 43.107 20.926 20.926"/><path data-name="Path 3676" d="M101.045 128.609a12.249 12.249 0 1 1-16.14-6.293 12.249 12.249 0 0 1 16.14 6.293"/><path data-name="Path 3677" d="M98.086 129.908a9.018 9.018 0 1 1-11.883-4.633 9.018 9.018 0 0 1 11.883 4.633z"/><path data-name="Line 280" d="m89.829 133.533 35.311-15.5"/></g></svg>