<svg xmlns="http://www.w3.org/2000/svg" width="56" height="56"><g data-name="Group 5971"><path data-name="Path 3537" d="M28.536 13.461c.4-.423.9-1.33 1.235-1.764a18.019 18.019 0 0 1 2.326-2.583 12.745 12.745 0 0 1 3.043-2.05 11.092 11.092 0 0 1 2.8-.893 11.376 11.376 0 0 1 2.387-.16 13.576 13.576 0 0 1 2.694.389 12.95 12.95 0 0 1 4.584 2.06 11.313 11.313 0 0 1 2.118 2 12.947 12.947 0 0 1 1.502 2.262 16.261 16.261 0 0 1 1.292 3.347c.157.586.258 1.18.367 1.775a14.457 14.457 0 0 1 .174 2.968 13.565 13.565 0 0 1-.144 1.423 14.933 14.933 0 0 1-.68 2.859 15.526 15.526 0 0 1-.577 1.455 20.48 20.48 0 0 1-1.669 2.982q-.925 1.375-1.985 2.649c-.726.878-1.5 1.713-2.3 2.52-.944.951-1.955 1.829-2.951 2.724q-.73.655-1.468 1.3c-.549.481-1.1.958-1.651 1.439-.451.4-.9.8-1.347 1.192-.517.452-1.041.9-1.559 1.347-.354.308-.7.624-1.057.932-.5.431-1 .856-1.5 1.286-.339.293-.672.593-1.01.886-.442.384-.888.764-1.33 1.148-.409.355-.811.72-1.225 1.069-.382.321-.75.66-1.145.967a1.466 1.466 0 0 1-.927.341h-.006a1.466 1.466 0 0 1-.927-.341c-.395-.307-.762-.646-1.144-.967-.415-.349-.816-.713-1.226-1.069-.442-.384-.888-.764-1.33-1.148-.338-.294-.672-.593-1.01-.886-.5-.43-1-.855-1.5-1.286-.355-.308-.7-.624-1.057-.932-.518-.451-1.042-.9-1.559-1.347-.452-.394-.9-.8-1.347-1.192-.549-.481-1.1-.957-1.651-1.439q-.737-.647-1.468-1.3c-1-.895-2.007-1.773-2.951-2.724a38.141 38.141 0 0 1-2.3-2.52Q8 30.903 7.071 29.531a20.48 20.48 0 0 1-1.669-2.982 15.51 15.51 0 0 1-.578-1.455 14.937 14.937 0 0 1-.68-2.859A13.614 13.614 0 0 1 4 20.812a14.452 14.452 0 0 1 .174-2.968c.109-.595.21-1.189.367-1.775a16.257 16.257 0 0 1 1.292-3.347 12.944 12.944 0 0 1 1.509-2.268 11.31 11.31 0 0 1 2.118-2 12.949 12.949 0 0 1 4.584-2.06 13.575 13.575 0 0 1 2.694-.389 11.377 11.377 0 0 1 2.387.16 11.094 11.094 0 0 1 2.8.893 12.747 12.747 0 0 1 3.043 2.05 18.019 18.019 0 0 1 2.326 2.583c.338.44.839 1.347 1.242 1.77z" fill="none" stroke="#fff" stroke-linecap="round" stroke-linejoin="round" stroke-width="3"/></g></svg>