<svg xmlns="http://www.w3.org/2000/svg" width="52" height="51"><g data-name="Group 6265" transform="translate(2 2)" fill="none" stroke="#fff" stroke-linecap="round" stroke-linejoin="round" stroke-width="2"><circle data-name="Ellipse 366" cx="23.592" cy="23.592" r="23.592"/><path data-name="Line 242" d="m7.048 7.049 33.333 33.333"/><circle data-name="Ellipse 367" cx="9.594" cy="9.594" transform="rotate(-1.408 739.605 -551.148)" r="9.594"/><path data-name="Path 3625" d="M18.208 19.628v-3.423a4.278 4.278 0 0 1 4.006-4.507h2.757a4.278 4.278 0 0 1 4.006 4.507v3.423"/><path data-name="Line 243" d="m26.407 11.405 2.888-2.888"/><path data-name="Line 244" d="M20.778 11.405 17.89 8.517"/><path data-name="Line 245" d="M7.552 27.068h5.69"/><path data-name="Path 3626" d="M9.873 18.551h0a6.657 6.657 0 0 0 4.553 3.953l.635.159"/><path data-name="Path 3627" d="M9.873 35.585h0a6.657 6.657 0 0 1 4.553-3.953l.635-.159"/><path data-name="Line 246" d="M39.633 27.068h-5.691"/><path data-name="Path 3628" d="M37.314 18.551h0a6.657 6.657 0 0 1-4.553 3.953l-.635.159"/></g></svg>