<svg xmlns="http://www.w3.org/2000/svg" width="56" height="56"><g data-name="Group 5972" fill="none" stroke="#fff" stroke-linecap="round" stroke-linejoin="round" stroke-width="3"><path data-name="Path 3554" d="M20.456 7.446a5.445 5.445 0 1 1-5.445-5.445 5.445 5.445 0 0 1 5.445 5.445z"/><path data-name="Path 3555" d="M14.967 34.732v16.1a3.268 3.268 0 0 1-6.535 0V21.997"/><path data-name="Path 3556" d="M8.431 22.41v9.318a3.216 3.216 0 1 1-6.431 0V20.903a5.4 5.4 0 0 1 5.4-5.4h10.278a5.97 5.97 0 0 1 4.224 1.751l3.541 3.545"/><path data-name="Path 3557" d="m25.444 20.802 4.608-2.129a3.32 3.32 0 0 1 2.912 5.967l-7.136 3.363a3.637 3.637 0 0 1-3.141.023l-1.2-.566.04 23.372a3.268 3.268 0 0 1-6.535 0v-15.4"/><path data-name="Line 256" d="m34.473 20.162 9.461-4.858"/><path data-name="Path 3558" d="M24.477 19.834V6.275A4.275 4.275 0 0 1 28.752 2h20.7a4.275 4.275 0 0 1 4.275 4.275v13.761a4.275 4.275 0 0 1-4.275 4.275H33.501"/></g></svg>