<svg xmlns="http://www.w3.org/2000/svg" width="112" height="109"><g fill="none" stroke="#16b2cf" stroke-linecap="round" stroke-linejoin="round" stroke-width="4"><path data-name="Line 252" d="M30.368 27.819h8.725"/><path data-name="Line 253" d="M56.541 27.819h24.428"/><path data-name="Line 254" d="M80.97 80.165h-8.725"/><path data-name="Line 255" d="M54.796 80.165H30.368"/><path data-name="Line 256" d="M80.97 45.269h-8.725"/><path data-name="Line 257" d="M54.796 45.269H30.368"/><path data-name="Line 258" d="M30.368 62.717h8.725"/><path data-name="Line 259" d="M56.541 62.717h24.428"/><path data-name="Path 3640" d="M39.089 10.37H21.266a8.347 8.347 0 0 0-8.347 8.349v26.926a8.348 8.348 0 0 1-8.348 8.348h0a8.348 8.348 0 0 1 8.348 8.347v26.93a8.348 8.348 0 0 0 8.347 8.348h17.823"/><path data-name="Path 3641" d="M72.244 97.613H90.07a8.347 8.347 0 0 0 8.347-8.347V62.34a8.348 8.348 0 0 1 8.348-8.348h0a8.347 8.347 0 0 1-8.347-8.348V18.718a8.348 8.348 0 0 0-8.348-8.348H72.244"/></g></svg>