<svg xmlns="http://www.w3.org/2000/svg" width="245" height="238"><g opacity=".61" fill="none" stroke="#6a83bb" stroke-linecap="round" stroke-linejoin="round" stroke-width="12"><path data-name="Path 3673" d="m201.73 144.082 26.212-12.287v-25.623L201.73 93.86a83.293 83.293 0 0 0-5.31-12.824l9.838-27.24-18.136-18.112-27.215 9.839a80.739 80.739 0 0 0-12.825-5.286v-.025L135.796 14h-25.623L97.861 40.212h.024v.025a77.869 77.869 0 0 0-12.849 5.311v-.025l-27.215-9.839-18.137 18.112 9.839 27.24h.025a83.176 83.176 0 0 0-5.311 12.824h-.024L18 106.147v25.625l26.213 12.311v-.024h.024a81.014 81.014 0 0 0 5.286 12.849h.025v.024l-.025-.024-9.839 27.239 18.136 18.111 27.215-9.839a83.062 83.062 0 0 0 12.825 5.311l12.286 26.212h25.627l12.309-26.212a78.557 78.557 0 0 0 12.825-5.311h.024l27.191 9.839 18.135-18.111-9.838-27.217v-.024a78.652 78.652 0 0 0 5.311-12.824zm-18.772-5.972a57.033 57.033 0 0 1-4.062 9.766 62.817 62.817 0 0 1-27.044 27.019 59.08 59.08 0 0 1-9.766 4.064 63.157 63.157 0 0 1-38.229 0 59.921 59.921 0 0 1-9.766-4.064 62.947 62.947 0 0 1-27.044-27.019 61.524 61.524 0 0 1-4.062-9.79 63.158 63.158 0 0 1 0-38.229 61.525 61.525 0 0 1 4.062-9.79 62.949 62.949 0 0 1 27.044-27.02 60.016 60.016 0 0 1 9.766-4.064 63.18 63.18 0 0 1 38.229 0 59.172 59.172 0 0 1 9.766 4.064 62.813 62.813 0 0 1 27.044 27.02 59.369 59.369 0 0 1 4.087 9.79 62.992 62.992 0 0 1-.024 38.253z"/><path data-name="Line 268" d="m111.255 148.34 23.433-58.739"/><path data-name="Path 3674" d="m98.677 132.718-22.188-13.747 22.183-13.747"/><path data-name="Path 3675" d="m147.266 132.718 22.183-13.747-22.183-13.747"/></g></svg>