<svg xmlns="http://www.w3.org/2000/svg" width="112" height="109.846"><g transform="translate(-569 -1045)" fill="none" stroke="#16b2cf" stroke-linecap="round" stroke-linejoin="round" stroke-width="4"><path data-name="Path 3642" d="M624.095 1138.579h-42.577a6.069 6.069 0 0 1-6.057-6.04V1057.5a6.068 6.068 0 0 1 6.057-6.039h74.5a6.065 6.065 0 0 1 6.057 6.039v46.745"/><path data-name="Path 3643" d="M589.567 1068.583a4.512 4.512 0 1 0-4.522-4.514 4.528 4.528 0 0 0 4.522 4.514z"/><path data-name="Path 3644" d="M607.655 1068.583a4.512 4.512 0 1 0-4.522-4.514 4.528 4.528 0 0 0 4.522 4.514z"/><path data-name="Path 3645" d="M629.281 1059.559h18.69a4.512 4.512 0 1 1 0 9.023h-18.69a4.512 4.512 0 1 1 0-9.023z"/><rect data-name="Rectangle 4744" width="48.708" height="44.557" rx="3.401" transform="translate(624.095 1104.245)"/><path data-name="Line 260" d="M575.461 1076.681h86.616"/><path data-name="Line 261" d="m601.322 1084.931-3.521 15.266"/><path data-name="Path 3646" d="m589.292 1086.265-5.411 6.3 5.411 6.293"/><path data-name="Path 3647" d="m609.832 1086.265 5.411 6.3-5.411 6.293"/><path data-name="Path 3648" d="M623.363 1092.563h7.435m8.043 0h14.573"/><path data-name="Path 3649" d="M583.881 1108.54h3.656m8.038 0h19.097"/><path data-name="Line 262" d="M583.111 1118.221h31.204"/><path data-name="Path 3650" d="M614.672 1127.903h-3.65m-8.043 0h-19.1"/><path data-name="Path 3651" d="m637.572 1135.763 7.25-18.479 7.255 18.479"/><path data-name="Line 263" d="M660.733 1135.763v-18.479"/><path data-name="Line 264" d="M639.417 1131.069h10.815"/></g></svg>