<svg xmlns="http://www.w3.org/2000/svg" width="245" height="238"><path data-name="Path 3669" d="M122.713 51.874c1.886-1.978 4.228-6.218 5.775-8.251a84.343 84.343 0 0 1 10.878-12.073 59.607 59.607 0 0 1 14.227-9.585 51.871 51.871 0 0 1 13.08-4.176 53.216 53.216 0 0 1 11.16-.75 63.391 63.391 0 0 1 12.594 1.811 60.553 60.553 0 0 1 21.431 9.634 52.948 52.948 0 0 1 9.905 9.33 60.57 60.57 0 0 1 7.053 10.6 76.025 76.025 0 0 1 6.041 15.65c.733 2.74 1.206 5.517 1.718 8.3a67.606 67.606 0 0 1 .812 13.879 63.811 63.811 0 0 1-.674 6.654 69.823 69.823 0 0 1-3.177 13.368 72.909 72.909 0 0 1-2.7 6.8 95.824 95.824 0 0 1-7.8 13.943q-4.327 6.427-9.284 12.383c-3.394 4.1-7 8.008-10.748 11.782-4.413 4.444-9.141 8.553-13.8 12.735q-3.412 3.063-6.865 6.08c-2.566 2.25-5.154 4.476-7.72 6.727-2.107 1.848-4.187 3.73-6.3 5.574-2.419 2.112-4.866 4.192-7.289 6.3-1.657 1.441-3.28 2.919-4.94 4.357-2.325 2.014-4.676 4-7 6.013-1.585 1.369-3.142 2.77-4.723 4.143-2.068 1.8-4.152 3.573-6.219 5.368-1.914 1.661-3.791 3.366-5.73 5-1.787 1.5-3.507 3.084-5.351 4.522a6.856 6.856 0 0 1-4.336 1.591h-.031a6.856 6.856 0 0 1-4.336-1.591c-1.844-1.437-3.564-3.019-5.351-4.522-1.939-1.63-3.816-3.335-5.73-5-2.068-1.8-4.152-3.572-6.219-5.368-1.581-1.373-3.139-2.774-4.723-4.143-2.328-2.012-4.679-4-7-6.013-1.659-1.437-3.282-2.916-4.939-4.357-2.423-2.107-4.871-4.187-7.289-6.3-2.112-1.844-4.192-3.725-6.3-5.574-2.566-2.25-5.154-4.476-7.72-6.727q-3.447-3.023-6.865-6.08c-4.657-4.182-9.385-8.29-13.8-12.735-3.749-3.774-7.353-7.679-10.748-11.782q-4.942-5.974-9.284-12.383a95.823 95.823 0 0 1-7.8-13.943 72.911 72.911 0 0 1-2.7-6.8A69.822 69.822 0 0 1 8.713 92.9a63.8 63.8 0 0 1-.674-6.65 67.607 67.607 0 0 1 .812-13.879c.512-2.781.985-5.558 1.718-8.3a76.024 76.024 0 0 1 6.041-15.65 60.57 60.57 0 0 1 7.053-10.6 52.947 52.947 0 0 1 9.905-9.33A60.553 60.553 0 0 1 55 18.85a63.391 63.391 0 0 1 12.594-1.817 53.216 53.216 0 0 1 11.16.75 51.871 51.871 0 0 1 13.08 4.176 59.607 59.607 0 0 1 14.226 9.591 84.342 84.342 0 0 1 10.877 12.078c1.548 2.027 3.89 6.268 5.776 8.246z" fill="none" stroke="#6a83bb" stroke-linecap="round" stroke-linejoin="round" stroke-width="12" opacity=".61"/></svg>