<svg xmlns="http://www.w3.org/2000/svg" width="56" height="56"><g data-name="Group 5968" fill="none" stroke="#fff" stroke-linecap="round" stroke-linejoin="round" stroke-width="3"><path data-name="Path 3549" d="M35.495 40.415a17.2 17.2 0 0 1-15.481 8.968 18.547 18.547 0 0 1-6.828-1.286h0L2.999 52.626l3.735-8.995a14.376 14.376 0 0 1-3.735-9.592 15.034 15.034 0 0 1 7.8-12.9"/><path data-name="Path 3550" d="m47.105 33.926 4.482 10.8-12.226-5.436h0a22.259 22.259 0 0 1-8.194 1.543c-11.278 0-20.42-8.245-20.42-18.415s9.142-18.415 20.42-18.415 20.42 8.245 20.42 18.415a16.8 16.8 0 0 1-.151 2.252"/><path data-name="Line 250" d="M39.407 15.435H23.014"/><path data-name="Line 251" d="M42.238 22.677H20.183"/><path data-name="Line 252" d="M39.407 29.919H23.014"/></g></svg>