<svg xmlns="http://www.w3.org/2000/svg" width="27" height="27"><path data-name="Rectangle 5685" fill="none" d="M0 0h27v27H0z"/><path data-name="Path 3324" d="M12.849 4a9.849 9.849 0 0 0-3.115 19.193c.492.086.677-.209.677-.468 0-.234-.012-1.01-.012-1.834-2.475.456-3.115-.6-3.312-1.157a3.581 3.581 0 0 0-1.01-1.391c-.345-.185-.837-.64-.012-.652A1.971 1.971 0 0 1 7.58 18.7a2.105 2.105 0 0 0 2.868.813 2.072 2.072 0 0 1 .628-1.317c-2.191-.246-4.481-1.1-4.481-4.863A3.833 3.833 0 0 1 7.6 10.685a3.539 3.539 0 0 1 .1-2.61s.825-.259 2.708 1.01a9.285 9.285 0 0 1 4.924 0c1.884-1.28 2.708-1.01 2.708-1.01a3.539 3.539 0 0 1 .1 2.61 3.811 3.811 0 0 1 1.01 2.647c0 3.779-2.3 4.617-4.494 4.863a2.332 2.332 0 0 1 .665 1.822c0 1.317-.012 2.376-.012 2.708 0 .259.185.566.677.468A9.854 9.854 0 0 0 12.849 4z" fill="#fff" fill-rule="evenodd"/></svg>