<svg xmlns="http://www.w3.org/2000/svg" width="27" height="27"><path data-name="Rectangle 5686" fill="none" d="M0 0h27v27H0z"/><path data-name="Path 3325" d="M20.385 7.254A15.754 15.754 0 0 0 16.395 6a11.711 11.711 0 0 0-.511 1.061 14.653 14.653 0 0 0-4.423 0A11.344 11.344 0 0 0 10.944 6 15.7 15.7 0 0 0 6.95 7.257a16.736 16.736 0 0 0-2.868 11.207 15.955 15.955 0 0 0 4.894 2.508 12.175 12.175 0 0 0 1.048-1.726 10.3 10.3 0 0 1-1.651-.8c.138-.1.274-.21.4-.32a11.279 11.279 0 0 0 9.786 0c.132.11.268.218.4.32a10.277 10.277 0 0 1-1.654.8 12.115 12.115 0 0 0 1.048 1.726 15.923 15.923 0 0 0 4.9-2.51 16.72 16.72 0 0 0-2.868-11.208zm-9.927 8.954a1.878 1.878 0 0 1-1.739-1.978 1.868 1.868 0 0 1 1.739-1.98 1.856 1.856 0 0 1 1.742 1.98 1.865 1.865 0 0 1-1.742 1.978zm6.426 0a1.877 1.877 0 0 1-1.738-1.978 1.868 1.868 0 0 1 1.739-1.98 1.856 1.856 0 0 1 1.739 1.98 1.866 1.866 0 0 1-1.739 1.978z" fill="#fff"/></svg>