<svg xmlns="http://www.w3.org/2000/svg" width="27" height="27"><path data-name="Rectangle 5683" fill="none" d="M0 0h27v27H0z"/><path data-name="Union 5" d="M6.623 20.2a1.624 1.624 0 0 1-1.624-1.624v-7.888c.039.027.078.056.12.083l7.219 4.813a2.654 2.654 0 0 0 1.473.448 2.66 2.66 0 0 0 1.473-.448l7.219-4.813c.039-.027.081-.056.117-.083v7.888a1.621 1.621 0 0 1-1.621 1.624zm6.289-5.474L5.69 9.911a1.545 1.545 0 0 1-.691-1.29A1.625 1.625 0 0 1 6.623 7h14.378a1.623 1.623 0 0 1 1.621 1.621 1.543 1.543 0 0 1-.688 1.29l-7.222 4.815a1.626 1.626 0 0 1-.9.273 1.62 1.62 0 0 1-.899-.272z" fill="#fff" stroke="rgba(0,0,0,0)" stroke-miterlimit="10"/></svg>