<svg xmlns="http://www.w3.org/2000/svg" width="27" height="27"><path data-name="Rectangle 5684" fill="none" d="M0 0h27v27H0z"/><path data-name="Subtraction 3" d="M20.372 22.875a.241.241 0 0 1-.143-.053 1.768 1.768 0 0 1-.281-.282 8.948 8.948 0 0 1-.775-1.188 36.177 36.177 0 0 1-2.048-4.187l-.012-.028-.013-.027h-.014l-.011.079v.011c-.012.1-.025.2-.044.295a6.929 6.929 0 0 1-.758 2.182 3.9 3.9 0 0 1-.792.934.971.971 0 0 1-.616.276.694.694 0 0 0-.174.04h-.012a1.092 1.092 0 0 1-.115.034 2.149 2.149 0 0 1-.453.049 2.635 2.635 0 0 1-.993-.211 4.667 4.667 0 0 1-1.471-1.006 11.683 11.683 0 0 1-1.705-2.121l-.007-.01-.032-.043-.074.148-.166.325a33.387 33.387 0 0 1-2.218 3.751 6.38 6.38 0 0 1-.649.816 1.33 1.33 0 0 1-.189.162.277.277 0 0 1-.153.054.229.229 0 0 1-.2-.157 1.208 1.208 0 0 1-.092-.468 4.847 4.847 0 0 1 .059-.926 9.9 9.9 0 0 1 .524-2.073 4.629 4.629 0 0 1 .627-1.2 11.336 11.336 0 0 1 1.694-1.755.068.068 0 0 0 .02-.1c-.035-.064-.068-.13-.1-.194l-.1-.2a.045.045 0 0 1 .011-.064 4.563 4.563 0 0 1 1.187-.864 7.68 7.68 0 0 1 2.16-.749l.03-.006h.007l.1-.021-.128-.02-.245-.042a6.23 6.23 0 0 1-4.016-2.447 8.789 8.789 0 0 1-1.268-2.446 13.062 13.062 0 0 1-.58-2.449 13.344 13.344 0 0 1-.136-1.8.187.187 0 0 1 .047-.131 2.054 2.054 0 0 1 1.229-.708 2.53 2.53 0 0 1 .476-.045 3.268 3.268 0 0 1 1.062.192c.085.029.17.064.251.1l.022.01c.071.029.144.06.217.087a.407.407 0 0 0 .136.028h.55c.386 0 .763 0 1.139.02.527.022 1.093.063 1.728.12a69.522 69.522 0 0 1 3.4.389l.088.012.244.034h.05a.839.839 0 0 0 .186-.027h.015c.027-.007.054-.014.081-.019a9.019 9.019 0 0 1 1.719-.187 4.213 4.213 0 0 1 1.636.279 2.072 2.072 0 0 1 .855.6c.16.193.162.2.095.44a15.511 15.511 0 0 1-2.026 4.489 9.128 9.128 0 0 1-2.071 2.246 6.5 6.5 0 0 1-2.118 1.079.145.145 0 0 0-.045.014.124.124 0 0 1 0 .014 12.2 12.2 0 0 1 2.137.259c.011.1.018.179.022.246l.013.281v.051c0 .106.01.213.015.319a.092.092 0 0 0 .028.064 9.041 9.041 0 0 1 1.273 1.126 12.341 12.341 0 0 1 1.131 1.352 5.294 5.294 0 0 1 .789 1.753 10.37 10.37 0 0 1 .346 2.221 3.074 3.074 0 0 1-.07.931.967.967 0 0 1-.1.24.212.212 0 0 1-.186.102zM10.052 6.188v3.737l3.09.3v2.329l1.452.134v-2.321l.346.033V9.027l-.346-.034V6.641l-1.452-.1v2.308l-1.683-.167V6.369l-1.407-.173z" fill="#fff" stroke="rgba(0,0,0,0)" stroke-miterlimit="10"/></svg>