<svg xmlns="http://www.w3.org/2000/svg" width="52" height="51"><g data-name="Group 6262" fill="none" stroke="#fff" stroke-linecap="round" stroke-linejoin="round" stroke-width="2"><path data-name="Line 252" d="M14.16 13.136h4.068"/><path data-name="Line 253" d="M26.363 13.136h11.39"/><path data-name="Line 254" d="M37.754 37.543h-4.068"/><path data-name="Line 255" d="M25.55 37.543H14.16"/><path data-name="Line 256" d="M37.754 21.272h-4.068"/><path data-name="Line 257" d="M25.55 21.272H14.16"/><path data-name="Line 258" d="M14.16 29.407h4.068"/><path data-name="Line 259" d="M26.363 29.407h11.39"/><path data-name="Path 3640" d="M18.228 4.999H9.916a3.892 3.892 0 0 0-3.892 3.893v12.555a3.893 3.893 0 0 1-3.892 3.893h0a3.892 3.892 0 0 1 3.892 3.892v12.555a3.892 3.892 0 0 0 3.892 3.892h8.312"/><path data-name="Path 3641" d="M33.686 45.679h8.312a3.892 3.892 0 0 0 3.892-3.892V29.232a3.893 3.893 0 0 1 3.892-3.892h0a3.892 3.892 0 0 1-3.892-3.892V8.892A3.892 3.892 0 0 0 41.998 5h-8.312"/></g></svg>