<svg xmlns="http://www.w3.org/2000/svg" width="52" height="51"><g data-name="Group 6266" transform="translate(3 3)" fill="none" stroke="#fff" stroke-linecap="round" stroke-linejoin="round" stroke-width="2"><path data-name="Path 3642" d="M22.58 40.448H2.812A2.818 2.818 0 0 1 0 37.648V2.804a2.817 2.817 0 0 1 2.812-2.8h34.59a2.816 2.816 0 0 1 2.812 2.8v21.7"/><path data-name="Path 3643" d="M6.549 7.949a2.095 2.095 0 1 0-2.1-2.1 2.1 2.1 0 0 0 2.1 2.1z"/><path data-name="Path 3644" d="M14.948 7.949a2.095 2.095 0 1 0-2.1-2.1 2.1 2.1 0 0 0 2.1 2.1z"/><path data-name="Path 3645" d="M24.988 3.76h8.678a2.095 2.095 0 1 1 0 4.189h-8.678a2.095 2.095 0 1 1 0-4.189z"/><rect data-name="Rectangle 4744" width="22.614" height="20.687" rx="3.401" transform="translate(22.58 24.507)"/><path data-name="Line 260" d="M0 11.709h40.215"/><path data-name="Line 261" d="m12.007 15.539-1.635 7.088"/><path data-name="Path 3646" d="m6.421 16.159-2.512 2.922 2.512 2.922"/><path data-name="Path 3647" d="m15.958 16.159 2.512 2.922-2.512 2.922"/><path data-name="Path 3648" d="M22.238 19.083h3.452m3.734 0h6.766"/><path data-name="Path 3649" d="M3.909 26.501h1.7m3.732 0H18.2"/><path data-name="Line 262" d="M3.551 30.996h14.488"/><path data-name="Path 3650" d="M18.2 35.489h-1.695m-3.734 0H3.905"/><path data-name="Path 3651" d="m28.837 39.14 3.366-8.58 3.368 8.58"/><path data-name="Line 263" d="M39.59 39.141v-8.58"/><path data-name="Line 264" d="M29.693 36.961h5.021"/></g></svg>