<svg xmlns="http://www.w3.org/2000/svg" width="52" height="51"><g data-name="Group 6263" fill="none" stroke="#fff" stroke-linecap="round" stroke-linejoin="round" stroke-width="2"><path data-name="Path 3629" d="M23.465 31.602a9.522 9.522 0 1 0 9.522-9.522 9.522 9.522 0 0 0-9.522 9.522z"/><path data-name="Path 3630" d="m37.092 40.196 6.346 6.346a3.174 3.174 0 0 0 4.488-4.488l-6.346-6.348"/><path data-name="Path 3631" d="M27.574 39.435H6.946a3.736 3.736 0 0 1-3.736-3.736V8.045a3.736 3.736 0 0 1 3.736-3.736h30.828a3.736 3.736 0 0 1 3.732 3.736v19.312"/><path data-name="Line 247" d="M3.211 10.657h38.3"/><path data-name="Line 248" d="M35.163 10.657V4.309"/><path data-name="Line 249" d="m20.774 29.913 3.174-9.522"/><path data-name="Path 3632" d="m16.013 29.913-6.454-4.761 6.454-4.761"/><path data-name="Line 250" d="m31.177 22.162-2.362-1.771"/><path data-name="Path 3633" d="m27.89 34.635 8.032-6.029-7.187-5.391"/></g></svg>