<svg xmlns="http://www.w3.org/2000/svg" width="112" height="109.846"><g transform="translate(-719 -766.999)" fill="none" stroke="#16b2cf" stroke-linecap="round" stroke-linejoin="round" stroke-width="4"><rect data-name="Rectangle 4743" width="64.626" height="56.548" rx="3.401" transform="translate(756.177 773.461)"/><path data-name="Path 3634" d="M756.179 789.617h24.235a8.078 8.078 0 0 0 8.079-8.078v-8.078"/><path data-name="Path 3635" d="M755.949 812.236h-22.391a8.079 8.079 0 0 0-8.079 8.074v40.4a8.078 8.078 0 0 0 8.079 8.078h48.469a8.078 8.078 0 0 0 8.079-8.078v-30.213"/><path data-name="Line 251" d="M725.48 828.392h32.299"/><path data-name="Path 3636" d="M741.636 773.461a8.078 8.078 0 0 0-8.078 8.078v16.156"/><path data-name="Path 3637" d="M804.646 868.784a8.078 8.078 0 0 0 8.078-8.078V844.55"/><path data-name="Path 3638" d="m725.461 789.628 4.844 6.46a4.041 4.041 0 0 0 6.468 0l4.845-6.46"/><path data-name="Path 3639" d="m804.628 852.638 4.844-6.46a4.041 4.041 0 0 1 6.468 0l4.845 6.46"/></g></svg>