<?xml version="1.0" standalone="no"?>
<!DOCTYPE svg PUBLIC "-//W3C//DTD SVG 20010904//EN"
 "http://www.w3.org/TR/2001/REC-SVG-20010904/DTD/svg10.dtd">
<svg version="1.0" xmlns="http://www.w3.org/2000/svg"
 width="513.000000pt" height="513.000000pt" viewBox="0 0 513.000000 513.000000"
 preserveAspectRatio="xMidYMid meet">
<metadata>
Created by potrace 1.14, written by Peter Selinger 2001-2017
</metadata>
<g transform="translate(0.000000,513.000000) scale(0.100000,-0.100000)"
fill="#000000" stroke="none">
<path d="M3337 5124 c-1 -1 -33 -4 -72 -7 -61 -6 -103 -12 -202 -31 -157 -31
-391 -127 -542 -223 -141 -89 -314 -245 -409 -368 -92 -119 -178 -282 -234
-444 -30 -88 -84 -300 -92 -361 -2 -19 -7 -51 -10 -70 -24 -146 -31 -273 -30
-548 0 -139 4 -255 7 -259 4 -3 21 -7 39 -8 18 -1 51 -5 73 -9 22 -3 57 -8 78
-11 20 -3 54 -7 75 -10 20 -3 53 -7 72 -10 64 -8 105 -14 155 -21 28 -3 59 -8
70 -10 11 -3 46 -7 78 -11 l57 -6 -5 34 c-14 94 -21 474 -11 609 23 313 100
563 221 720 126 163 346 294 570 341 86 18 274 26 335 14 13 -2 41 -7 62 -10
75 -11 218 -66 304 -115 49 -28 91 -54 94 -58 3 -4 21 -19 40 -33 184 -139
324 -385 365 -644 8 -47 8 -214 0 -269 -36 -268 -185 -522 -378 -647 -102 -66
-320 -137 -476 -155 -31 -3 -59 -8 -62 -10 -28 -17 -471 -23 -669 -10 -202 14
-267 22 -465 55 -33 6 -78 13 -100 16 -22 3 -51 8 -65 10 -14 2 -45 7 -70 10
-54 7 -183 24 -225 30 -152 23 -535 24 -640 1 -11 -2 -42 -7 -70 -10 -161 -21
-367 -86 -515 -162 -351 -181 -565 -481 -656 -919 -13 -64 -12 -321 2 -412 62
-410 333 -778 713 -968 352 -176 799 -175 1156 2 309 154 534 412 640 737 57
174 76 302 82 543 l6 212 -24 5 c-87 18 -133 26 -199 37 -41 6 -84 13 -95 15
-34 7 -359 54 -373 54 -11 0 -12 -19 -6 -92 10 -133 11 -203 2 -319 -15 -209
-71 -353 -177 -460 -332 -332 -902 -186 -1033 265 -16 55 -18 69 -22 156 -9
212 105 430 276 528 107 61 237 97 433 117 48 5 338 6 380 1 36 -4 134 -13
230 -22 38 -3 78 -8 90 -10 11 -2 40 -6 64 -9 82 -10 304 -48 381 -65 174 -40
715 -48 990 -16 99 11 149 18 185 26 22 5 56 12 75 15 131 23 352 96 474 157
294 147 520 386 675 713 36 75 107 283 116 337 3 18 8 47 12 63 16 77 25 169
27 286 17 871 -629 1605 -1499 1705 -55 6 -272 13 -278 8z"/>
</g>
</svg>
